<?xml version="1.0" ?><!DOCTYPE svg  PUBLIC '-//W3C//DTD SVG 1.1//EN'  'http://www.w3.org/Graphics/SVG/1.1/DTD/svg11.dtd'><svg enable-background="new 0 0 128 128" id="Слой_1" version="1.1" viewBox="0 0 128 128" xml:space="preserve" xmlns="http://www.w3.org/2000/svg" xmlns:xlink="http://www.w3.org/1999/xlink"><g><circle cx="64" cy="64" fill="#F2F2F2" r="62"/><path d="M107.8,107.8c2.8-2.8,5.2-5.7,7.3-8.8c-2.1-1.5-4.5-2.9-7.3-4.3c-24.2-11.7-63.5-11.7-87.7,0   c-2.8,1.3-5.2,2.8-7.3,4.3c2.1,3.1,4.5,6,7.3,8.8C44.4,132.1,83.6,132.1,107.8,107.8z" fill="#92D3CB"/><path d="M108.4,93.7c-24.5-11.8-64.3-11.8-88.8,0c-2.7,1.3-5.2,2.8-7.5,4.4c0.5,0.7,0.9,1.4,1.4,2.1c0,0,0,0,0,0   c2.1-1.5,4.5-2.9,7.1-4.2c23.9-11.6,62.7-11.6,86.6,0c2.6,1.3,5,2.7,7.1,4.2c0,0,0,0,0,0c0.5-0.7,1-1.4,1.4-2.1   C113.6,96.4,111.1,95,108.4,93.7z" fill="#62345B"/><g><g><path d="M74,114L74,114c-1,0-1.9-0.8-1.9-1.9V51c0-1,0.8-1.9,1.9-1.9l0,0c1,0,1.9,0.8,1.9,1.9v61.1     C75.9,113.2,75,114,74,114z" fill="#F5F1E3"/></g><g><path d="M74,115.2c-1.7,0-3.1-1.4-3.1-3.1V51c0-1.7,1.4-3.1,3.1-3.1s3.1,1.4,3.1,3.1v61.1     C77.1,113.9,75.7,115.2,74,115.2z M74,50.4c-0.3,0-0.6,0.3-0.6,0.6v61.1c0,0.3,0.3,0.6,0.6,0.6s0.6-0.3,0.6-0.6V51     C74.6,50.7,74.3,50.4,74,50.4z" fill="#62345B"/></g><g><circle cx="74" cy="41.8" fill="#EE7F8F" r="27.8"/></g><g opacity="0.8"><path d="M55.5,43.8c-1.1,0-2-0.9-2-2c0-11.3,9.2-20.5,20.5-20.5c1.1,0,2,0.9,2,2s-0.9,2-2,2     c-9.1,0-16.5,7.4-16.5,16.5C57.5,42.9,56.6,43.8,55.5,43.8z" fill="#F1F7F2"/></g><g opacity="0.2"><path d="M74,14c-1.6,0-3.1,0.1-4.6,0.4C82.5,16.6,92.5,28,92.5,41.8S82.5,67,69.4,69.2c1.5,0.3,3.1,0.4,4.6,0.4     c15.3,0,27.8-12.4,27.8-27.8S89.3,14,74,14z" fill="#62345B"/></g><g><path d="M74,70.8c-16,0-29-13-29-29s13-29,29-29s29,13,29,29S90,70.8,74,70.8z M74,15.2     c-14.6,0-26.5,11.9-26.5,26.5S59.4,68.3,74,68.3c14.6,0,26.5-11.9,26.5-26.5S88.6,15.2,74,15.2z" fill="#62345B"/></g></g></g></svg>